<svg width="1003" height="996" viewBox="0 0 1003 996" fill="none" xmlns="http://www.w3.org/2000/svg">
<rect x="140.594" y="25.0098" width="139.509" height="66.5455" fill="#614E8E"/>
<rect x="723.34" y="25.0098" width="139.509" height="66.5455" fill="#614E8E"/>
<rect x="280" y="25" width="139" height="67" fill="#FFC400"/>
<rect x="584.211" y="25.0098" width="139.129" height="66.5455" fill="#FFC400"/>
<path d="M419 25H585V92H419V25Z" fill="#4F9B52"/>
<path d="M1.5 242.5H1001.5V696C1001.5 861.409 867.409 995.5 702 995.5H301C135.591 995.5 1.5 861.409 1.5 696V242.5Z" stroke="url(#paint0_linear_2227_1529)"/>
<path d="M419 91.5293L378.5 242L616.712 241.573H625.265L584.591 91.5293H419Z" fill="#448747"/>
<path d="M419 91.5005L280.063 91.3662L186 241.5L378.72 241.41L419 91.5005Z" fill="#C59808"/>
<path d="M584.59 91.5293H723.416L817.612 241.573H625.231L584.59 91.5293Z" fill="#C59808"/>
<path d="M280.064 91.3662L186.175 241.573L0.890625 241.163L140.633 91.3662H280.064Z" fill="#56457E"/>
<path d="M723.27 91.4995L816.845 241.573L1002.13 241.162L862.386 91.3657L723.27 91.4995Z" fill="#56457E"/>
<path d="M419 25L428.933 0H574.494L585 25H419Z" fill="#448747"/>
<path d="M723.372 25L701.5 0H574.5L585 25H723.372Z" fill="#C59808"/>
<path d="M1001 253C1001.9 248.894 1002 245.191 1002 241C987.723 241.001 943.142 240.694 928.413 240.694C896.585 240.694 866.5 241.5 833 241.5H817C817 243.354 815.637 244.8 815.637 246.642C815.637 250.3 814.693 253.736 815.103 257.468C815.397 260.153 816.374 267.883 820.733 264.886C824.81 262.084 821.117 255.599 823.005 251.821C823.474 250.884 824.947 250.444 825.261 251.854C825.657 253.636 825.97 255.348 826.23 257.167C826.649 260.103 827.445 263.132 828.335 265.956C829.167 268.594 830.582 272.22 833.147 273.641C835.06 274.701 838.504 274.077 839.93 272.438C841.635 270.48 842.773 267.383 843.439 264.903C844.192 262.095 844.207 259.041 844.675 256.165C844.899 254.786 845.241 253.325 846.045 252.155C847.098 250.623 851.544 253.643 851.859 253.793C856.931 256.197 863.166 260.198 869.118 258.888C873.162 257.998 872.844 253.382 874.749 250.785C876.435 248.486 880.712 248.476 883.236 248.513C890.849 248.625 897.298 254.466 904.956 254.528C908.82 254.559 912.936 254.907 916.751 254.227C919.946 253.658 922.37 251.875 924.888 249.916C925.984 249.064 927.547 249.415 928.881 249.415C930.79 249.415 931.768 249.623 933.208 250.919C936.397 253.789 936.726 258.837 938.271 262.581C939.074 264.528 939.606 266.663 941.779 267.526C943.445 268.187 945.659 268.057 947.193 267.025C952.187 263.665 949.721 257.506 951.603 252.59C952.354 250.629 953.184 247.912 955.613 247.912C957.084 247.912 958.949 249.009 959.957 250.017C961.555 251.614 961.494 255.017 961.494 257.084C961.494 259.797 961.367 262.651 961.127 265.354C960.904 267.861 960.606 270.594 960.96 273.106C961.308 275.583 962.31 276.181 964.635 276.181C968.649 276.181 975.335 274.851 975.612 269.865C975.927 264.202 975.454 258.779 977.6 253.341C978.961 249.894 982.109 248.136 983.816 252.055C984.6 253.856 985.15 255.667 985.486 257.602C985.795 259.378 986.892 268.265 988 269.865C997 279.5 991.914 262.028 994.5 260.5C998.541 258.112 1000.16 256.842 1001 253Z" fill="#614E8E"/>
<path d="M2.94153 252.726C2.04428 248.583 1 245.229 1 241C15.262 241.001 58.9937 241.195 73.7065 241.195H169.089H186.01C186.01 243.065 186.363 245.338 186.363 247.197C186.363 250.887 187.306 254.354 186.897 258.12C186.603 260.829 185.627 268.628 181.273 265.605C177.2 262.777 180.89 256.234 179.003 252.422C178.535 251.477 177.063 251.033 176.75 252.456C176.354 254.254 176.041 255.98 175.782 257.817C175.363 260.779 174.568 263.834 173.679 266.683C172.848 269.345 171.435 273.004 168.872 274.438C166.961 275.507 163.521 274.877 162.096 273.224C160.393 271.248 159.256 268.124 158.591 265.621C157.838 262.788 157.824 259.707 157.356 256.805C157.132 255.414 156.791 253.94 155.987 252.759C154.935 251.214 150.494 254.261 150.179 254.411C145.113 256.838 138.884 260.875 132.939 259.553C128.899 258.655 129.217 253.998 127.314 251.377C125.63 249.057 121.357 249.047 118.836 249.085C111.231 249.198 104.789 255.091 97.1391 255.153C93.2788 255.185 89.1674 255.536 85.356 254.85C82.1649 254.275 79.7433 252.476 77.2281 250.501C76.1332 249.64 74.5719 249.995 73.2392 249.995C71.3323 249.995 70.3549 250.205 68.9165 251.512C65.7311 254.408 65.4031 259.501 63.8595 263.278C63.0568 265.243 62.5253 267.397 60.3546 268.268C58.6911 268.935 56.4796 268.804 54.9471 267.762C49.9575 264.372 52.4218 258.158 50.541 253.198C49.7909 251.22 48.9625 248.478 46.5354 248.478C45.0661 248.478 43.2028 249.585 42.1961 250.602C40.6 252.214 40.6606 255.646 40.6606 257.732C40.6606 260.47 40.7877 263.349 41.0278 266.077C41.2503 268.605 41.5476 271.363 41.1947 273.898C40.8468 276.397 39.8461 277 37.5229 277C33.5133 277 26.8344 275.658 26.5577 270.628C26.2434 264.915 26.7159 259.443 24.5716 253.956C23.2122 250.478 20.068 248.704 18.363 252.658C17.5795 254.475 17.0301 256.303 16.694 258.255C16.3853 260.047 17.0665 262.203 15.9596 263.818C14.0764 266.565 9.59736 266.219 7.01385 264.677C2.9774 262.268 3.78109 256.602 2.94153 252.726Z" fill="#614E8E"/>
<path d="M186 241.235V247.665C186 249.545 187.664 249.862 188.02 251.685C188.838 255.866 190.322 259.937 194.14 262.241C196.299 263.544 198.624 264.196 201.143 264.196C203.5 264.196 205.246 263.349 207.3 262.25C210.618 260.475 214.405 259.911 218.073 261.019C219.776 261.534 220.573 262.636 221.946 263.679C223.694 265.008 225.621 266.33 227.858 266.565C229.848 266.775 231.141 266.526 232.944 265.512C235.52 264.063 237.759 262.099 240.22 260.474C241.838 259.405 243.616 259.167 245.531 259.13C247.834 259.084 250.771 259.036 252.515 260.84L252.525 260.85C253.68 262.045 254.648 263.047 255.241 264.629C255.753 265.994 256.045 267.286 256.727 268.596C258.672 272.333 263.946 273.2 267.8 272.478C269.973 272.071 272.205 271.378 274.399 271.171C275.93 271.027 276.537 271.515 277.696 272.447L277.746 272.487C281.321 275.363 285.236 278.458 289.43 274.753C291.228 273.165 292.913 270.762 294.196 268.727C296.171 265.594 298.317 262.406 300.663 259.534L300.715 259.47C302.167 257.692 304.141 255.275 306.614 255.416C309.809 255.599 312.218 256.632 313.739 259.477C316.579 264.79 314.427 271.173 315.29 276.887C315.396 277.587 315.825 279.594 316.061 280.101C317.369 282.907 320.369 285.351 323 284.165C324.037 283.697 327 283.165 326.514 277.977V275.683C326.514 272.512 324.5 268.83 324.5 265.665C324.5 264.054 324.242 262.147 325 260.665C326.06 258.591 329.353 257.56 331.5 257.165C336.27 256.286 340.817 260.429 343.604 263.952C344.545 265.142 345.408 266.508 346.48 267.58C347.712 268.812 349.441 268.876 351.115 268.925C352.856 268.975 354.159 268.877 355.523 267.712C357.134 266.338 358.652 264.779 360.355 263.519C361.301 262.82 362.097 262.392 363.269 262.532C364.658 262.699 366.095 263.328 367.415 263.773C368.544 264.154 369.427 264.572 369.915 265.71C370.992 268.223 370.852 270.94 371.222 273.597C371.407 274.928 371.562 276.648 372.275 277.827C372.743 278.601 373.676 278.946 374.485 279.245L374.512 279.255C376.044 279.822 375.828 282.15 377.5 281.666C379.802 280.999 378.142 279.326 379 277.166C379.914 274.865 380.805 275.142 381 272.666C381.211 269.988 381.236 266.784 380.5 264.166C379.227 259.636 380.955 254.644 379.5 250.166C378.911 248.352 379.103 241.862 379 240C370.5 240 379 240 376.5 240L351.81 240H291.282L186 241.235Z" fill="#FFC300"/>
<path d="M297.5 0L280.143 25H140.5L167.179 0H297.5Z" fill="#56457E"/>
<path d="M701 0L723.291 25H862.934L836.254 0H701Z" fill="#56457E"/>
<path d="M280 25L297.5 0H428.902L419 25H280Z" fill="#C59808"/>
<path d="M625 252.5C625.672 250.5 625.418 244.284 625 240C623.323 240.044 621.541 239.976 621.176 239.976H578.3C475.539 239.976 481.762 239.96 379.001 239.96C379.001 241.158 378.864 242.81 379 244C379.182 245.593 378.734 248.411 379.002 250C379.235 251.389 379.938 251.632 379.938 253.04C379.938 255.112 380.147 257.187 380.262 259.255C380.35 260.828 380.65 262.641 381.35 264.07C381.719 264.823 382.211 266.031 383.063 266.362C383.608 266.574 384.689 266.507 385.257 266.356C386.566 266.01 387.038 265.032 387.392 263.793C387.823 262.284 388.164 260.767 388.585 259.255L388.599 259.203C389.012 257.718 389.486 256.015 390.61 254.903C391.442 254.08 393.002 253.501 394.071 254.139C395.914 255.24 396.821 257.252 397.335 259.249C398.156 262.44 397.942 265.716 398.608 268.92C398.862 270.137 399.19 271.351 400.021 272.312C401.202 273.678 402.893 274.083 404.627 274.279C406.143 274.45 407.725 274.475 408.945 273.446C410.355 272.257 411.7 270.865 412.382 269.123C413.175 267.102 413.428 264.912 413.957 262.815C414.568 260.39 415.012 257.741 417.024 256.049C418.549 254.766 421.087 254.117 423.054 254.128C425.738 254.142 427.626 255.955 429.93 257.091C433.065 258.637 436.445 259.434 439.954 259.209C443.198 259.001 445.67 256.188 448.311 254.614C450.89 253.076 453.595 252.308 456.592 252.258C459.176 252.215 461.645 253.028 464.047 253.925C465.051 254.301 465.973 254.812 467.027 255.054C468.084 255.296 469.099 255.56 470.135 255.881C470.824 256.094 471.609 256.222 472.334 256.194C473.316 256.156 474.351 255.521 475.222 255.123C476.229 254.662 477.291 254.368 478.301 253.919C479.02 253.6 479.683 253.358 480.465 253.271C482.132 253.086 483.635 253.696 485.281 253.804C486.605 253.89 487.935 253.708 489.251 253.937C490.799 254.206 491.925 255 493.5 255C494.309 255.233 496.701 255.625 497.676 255.932C498.317 256.134 499.269 256.325 499.691 256.94C500.151 257.608 500.58 258.413 500.823 259.184C501.35 260.859 501.874 262.57 502.278 264.28C502.607 265.674 502.53 267.134 502.877 268.521C503.119 269.49 503.045 270.623 503.609 271.469C504.202 272.358 504.428 273.444 505.016 274.36C505.733 275.475 507.699 276.086 508.915 276.357C511.595 276.952 514.509 275.895 515.352 273.105C516.522 269.236 516.292 265.24 517.083 261.285C517.838 257.511 520.309 252.969 524.357 251.957C526.12 251.516 527.97 251.799 529.625 252.461C530.928 252.982 531.685 254.04 532.573 255.076C533.511 256.17 534.544 257.146 535.501 258.214C536.969 259.85 538.655 260.075 540.76 260.163C543.527 260.278 545.031 257.256 546.941 255.627C549.518 253.429 552.116 251.309 555.679 251.111C559.11 250.92 562.774 252.698 565.597 254.524C568.945 256.691 568.655 262.051 568.687 265.479C568.718 268.853 569.308 272.501 570.056 275.786C570.603 278.184 572.577 279 574.849 279C576.757 279 577.93 276.426 577.93 274.816C577.93 272.841 577.202 271.335 576.256 269.624C574.871 267.121 576.033 264.375 577.587 262.303C579.591 259.631 582.822 259.971 585.803 260.306C588.832 260.646 592.583 262.402 595.521 260.857C597.358 259.891 598.636 258.723 600.129 257.357L600.294 257.206C604.516 253.348 610.807 252.471 616.355 252.471C620.836 252.471 623.904 255.762 625 252.5Z" fill="#4F9B52"/>
<path d="M817.001 247.998V241.568C800.453 241.568 782.407 241.26 764.36 240.951L711.719 240.333H651.191L630.5 240.5C628.028 240.5 626.677 239.956 625 240C624.5 246 625.492 251.035 625 252.5C624.961 257.876 624.123 258.727 622.501 264.499C621.765 267.117 621.79 270.322 622.001 272.999C622.657 281.335 626.5 279 628.489 279.589L628.516 279.579C629.325 279.28 630.258 278.934 630.726 278.16C631.439 276.981 631.594 275.261 631.779 273.93C632.149 271.273 632.009 268.556 633.086 266.043C633.574 264.905 634.457 264.488 635.586 264.107C636.906 263.661 638.343 263.032 639.732 262.866C640.904 262.725 641.7 263.153 642.646 263.853C644.348 265.112 645.867 266.671 647.478 268.045C648.842 269.21 650.145 269.308 651.886 269.258C653.56 269.209 655.289 269.146 656.521 267.914C657.593 266.842 658.456 265.475 659.397 264.285C662.184 260.763 666.731 256.619 671.501 257.498C673.648 257.894 676.941 258.924 678.001 260.998C678.759 262.48 678.501 264.387 678.501 265.998C678.501 269.164 676.487 272.845 676.487 276.017C676.487 276.781 676.973 273.123 676.487 278.31C676.001 283.498 678.964 284.031 680.001 284.498C682.632 285.684 685.632 283.24 686.94 280.435C687.176 279.928 687.605 277.92 687.711 277.22C688.574 271.507 686.422 265.123 689.262 259.811C690.783 256.965 693.192 255.932 696.387 255.75C698.86 255.608 700.833 258.025 702.286 259.804L702.338 259.867C704.684 262.739 706.83 265.927 708.805 269.061C710.087 271.096 711.773 273.498 713.571 275.086C717.765 278.791 721.68 275.697 725.255 272.821L725.305 272.781C726.464 271.848 727.071 271.36 728.602 271.505C730.796 271.712 733.028 272.404 735.201 272.811C739.055 273.534 744.329 272.666 746.274 268.929C746.956 267.62 747.248 266.327 747.76 264.962C748.353 263.38 749.321 262.378 750.476 261.183L750.486 261.174C752.23 259.37 755.167 259.418 757.47 259.463C759.385 259.5 761.163 259.739 762.781 260.807C765.241 262.432 767.481 264.397 770.057 265.846C771.86 266.86 773.153 267.108 775.142 266.898C777.38 266.663 779.307 265.341 781.055 264.013C782.428 262.969 783.224 261.867 784.928 261.352C788.596 260.244 792.383 260.809 795.701 262.584C797.755 263.682 799.501 264.53 801.858 264.53C804.377 264.53 806.702 263.877 808.861 262.574C812.679 260.271 816.183 267.682 817.001 263.5C817.358 261.677 817.001 249.879 817.001 247.998Z" fill="#FFC300"/>
<defs>
<linearGradient id="paint0_linear_2227_1529" x1="501.5" y1="242" x2="501.5" y2="996" gradientUnits="userSpaceOnUse">
<stop stop-color="#887EB6"/>
<stop offset="0.285" stop-color="#69618C" stop-opacity="0"/>
<stop offset="0.87" stop-color="#776E9F" stop-opacity="0"/>
</linearGradient>
</defs>
</svg>
