<svg width="34" height="40" viewBox="0 0 34 40" fill="none" xmlns="http://www.w3.org/2000/svg">
<g clip-path="url(#clip0_2294_6)">
<path fill-rule="evenodd" clip-rule="evenodd" d="M20.631 14.2488C21.8692 13.6387 23.4446 12.7405 25.022 11.51C25.3546 12.1925 25.391 12.7881 25.2196 13.2691C25.0982 13.608 24.8694 13.9028 24.5685 14.1373C24.2427 14.3908 23.8358 14.5753 23.3859 14.6751C22.5324 14.8651 21.5359 14.7541 20.631 14.2488ZM20.8456 20.5003L22.4847 21.4359C19.1381 23.2895 18.2283 26.7313 17.1476 30.0837C16.067 26.7313 15.1571 23.2895 11.8107 21.4359L13.4497 20.5003C13.6083 20.441 13.7438 20.3338 13.8368 20.1938C13.9299 20.0538 13.9758 19.8883 13.9678 19.7209C13.8176 16.5813 14.6755 15.1929 15.8325 14.3212C16.2476 14.0089 16.7006 13.8521 17.1476 13.8521C17.5946 13.8521 18.0477 14.0089 18.4628 14.3212C19.6199 15.1929 20.4777 16.5813 20.3276 19.7209C20.3196 19.8883 20.3654 20.0538 20.4585 20.1938C20.5516 20.3338 20.6871 20.441 20.8456 20.5003ZM17.1476 0C19.0422 0.0502667 20.9414 0.413733 22.5898 1.1208C23.7312 1.61107 24.7963 2.25867 25.7607 3.03307C26.1962 3.38267 26.5548 3.7204 26.9499 4.1092C28.0153 4.1456 29.5725 2.97587 30.2954 1.88133C29.0513 5.912 23.3741 10.6719 19.4437 12.4932C19.4421 12.4925 19.441 12.4916 19.4398 12.4908C18.7344 11.9585 17.9411 11.6924 17.1476 11.6924C16.3541 11.6924 15.5609 11.9585 14.8556 12.4908C14.8544 12.4915 14.8533 12.4927 14.8517 12.4932C10.9212 10.6719 5.2441 5.912 4 1.88133C4.72277 2.97587 6.27989 4.1456 7.34536 4.1092C7.74054 3.72053 8.09916 3.38267 8.53455 3.03307C9.49896 2.25867 10.564 1.61107 11.7055 1.1208C13.3539 0.413733 15.2532 0.0502667 17.1476 0ZM13.6642 14.2488C12.4262 13.6387 10.8506 12.7405 9.27337 11.51C8.94079 12.1925 8.90436 12.7881 9.07558 13.2691C9.19714 13.608 9.42597 13.9028 9.72671 14.1373C10.0527 14.3908 10.4596 14.5753 10.9094 14.6751C11.7629 14.8651 12.7593 14.7541 13.6642 14.2488Z" fill="#7B7B7B"/>
<path fill-rule="evenodd" clip-rule="evenodd" d="M26.6019 10.0021C27.4702 9.13613 28.2354 8.1776 28.8506 7.32227L29.1631 7.90347C30.1691 9.8924 30.6917 11.8733 30.6917 14.1027L30.6896 17.6403L30.7085 19.4741C30.7813 23.9763 31.7671 28.5313 34 32.6999L29.3281 28.9769L26.0224 34.2781L22.5496 31.0473L17 39.9472L11.4504 31.0475L7.97772 34.2783L4.67203 28.9771L0 32.7C2.23294 28.5315 3.21867 23.9764 3.29166 19.4743L3.31055 17.6404L3.30839 14.1028C3.30839 11.8733 3.83094 9.8924 4.83718 7.9036L5.14952 7.3224C5.76475 8.17773 6.52975 9.13613 7.39824 10.0023L7.12705 10.5589C6.60018 11.6401 6.42573 12.8491 6.83616 13.9988C7.10074 14.7393 7.58362 15.3744 8.20614 15.8592C8.81059 16.33 9.52594 16.6473 10.2749 16.814C10.7628 16.9225 11.2598 16.9672 11.7536 16.952C11.6384 17.5975 11.5881 18.2669 11.5848 18.9491L7.17778 21.4645L10.5786 23.3484C10.8504 23.499 11.1092 23.6715 11.3522 23.8643C14.156 26.352 15.8417 33.7116 17.0001 37.3064C18.1587 33.7116 19.8443 26.352 22.6482 23.8643C22.8912 23.6715 23.15 23.499 23.4218 23.3484L26.8226 21.4645L22.4154 18.9491C22.4122 18.2669 22.3619 17.5975 22.2467 16.952C22.7405 16.9672 23.2375 16.9225 23.7254 16.814C24.4743 16.6473 25.1898 16.33 25.7941 15.8592C26.4165 15.3744 26.8995 14.7393 27.164 13.9988C27.5745 12.8491 27.4 11.6403 26.8732 10.5589L26.602 10.0023L26.6019 10.0021Z" fill="#7B7B7B"/>
</g>
<defs>
<clipPath id="clip0_2294_6">
<rect width="34" height="40" fill="white"/>
</clipPath>
</defs>
</svg>
