<svg width="45" height="40" viewBox="0 0 45 40" fill="none" xmlns="http://www.w3.org/2000/svg">
<g clip-path="url(#clip0_2294_5)">
<path d="M41.008 1.7658C41.008 1.7658 45.1361 0.156114 44.7921 4.06536C44.6775 5.67507 43.6454 11.309 42.8427 17.4028L40.0906 35.4544C40.0906 35.4544 39.8614 38.0989 37.7972 38.5588C35.7331 39.0187 32.6371 36.9491 32.0637 36.4892C31.605 36.1443 23.4635 30.9702 20.5966 28.4407C19.7939 27.7508 18.8766 26.3711 20.7113 24.7614L32.7517 13.2637C34.1278 11.8839 35.5038 8.66452 29.7703 12.5738L13.7164 23.4967C13.7164 23.4967 11.8817 24.6464 8.44164 23.6117L0.98801 21.3121C0.98801 21.3121 -1.76409 19.5874 2.93741 17.8627C14.4045 12.4587 28.509 6.93976 41.008 1.7658Z" fill="#7B7B7B"/>
</g>
<defs>
<clipPath id="clip0_2294_5">
<rect width="45" height="40" fill="white"/>
</clipPath>
</defs>
</svg>
