<svg width="40" height="40" viewBox="0 0 40 40" fill="none" xmlns="http://www.w3.org/2000/svg">
<g clip-path="url(#clip0_2294_5)">
<g clip-path="url(#clip1_2294_5)">
<path d="M28.2607 21.7391C26.0995 21.7391 24.3477 23.4909 24.3477 25.6522C24.3477 27.8134 26.0995 29.5652 28.2607 29.5652H39.9998V21.7391H28.2607ZM28.2607 26.9565C27.5404 26.9565 26.9563 26.3725 26.9563 25.6521C26.9563 24.9317 27.5403 24.3477 28.2607 24.3477C28.9811 24.3477 29.5651 24.9317 29.5651 25.6521C29.5651 26.3725 28.9811 26.9565 28.2607 26.9565Z" fill="#FBFAD8"/>
<path d="M28.2609 19.1305H34.7826V15.2174C34.7826 13.0597 33.0273 11.3044 30.8695 11.3044H1.30437C0.584297 11.3044 0 11.8886 0 12.6087V38.6956C0 39.4157 0.584297 40 1.30437 40H30.8695C33.0273 40 34.7826 38.2447 34.7826 36.087V32.1739H28.2609C24.6646 32.1739 21.7391 29.2484 21.7391 25.6522C21.7391 22.0559 24.6646 19.1305 28.2609 19.1305Z" fill="#FBFAD8"/>
<path d="M36.0866 11.3044H36.0742C36.8968 12.396 37.3909 13.7483 37.3909 15.2174V19.1305H39.9996V15.2174C39.9996 13.0597 38.2443 11.3044 36.0866 11.3044Z" fill="#FBFAD8"/>
<path d="M37.3909 32.1739V36.087C37.3909 37.5561 36.897 38.9084 36.0742 40H36.0866C38.2443 40 39.9996 38.2447 39.9996 36.087V32.1739H37.3909Z" fill="#FBFAD8"/>
<path d="M21.3561 0.382187C20.8466 -0.127266 20.0212 -0.127266 19.5116 0.382187L18.3652 1.52859L25.5324 8.69562H29.6696L21.3561 0.382187Z" fill="#FBFAD8"/>
<path d="M13.5309 0.382187C13.0215 -0.127345 12.1961 -0.127345 11.6866 0.382187L3.37305 8.69562H21.8445L13.5309 0.382187Z" fill="#FBFAD8"/>
</g>
</g>
<defs>
<clipPath id="clip0_2294_5">
<rect width="40" height="40" fill="white"/>
</clipPath>
<clipPath id="clip1_2294_5">
<rect width="40" height="40" fill="white"/>
</clipPath>
</defs>
</svg>
